<mxfile host="app.diagrams.net" agent="Mozilla/5.0 (Windows NT 10.0; Win64; x64) AppleWebKit/537.36 (KHTML, like Gecko) Chrome/130.0.0.0 YaBrowser/24.12.0.0 Safari/537.36" version="25.0.3">
  <diagram name="Страница — 1" id="EYlvExjAs3SGZ4q47Nqx">
    <mxGraphModel dx="989" dy="546" grid="1" gridSize="10" guides="1" tooltips="1" connect="1" arrows="1" fold="1" page="1" pageScale="1" pageWidth="827" pageHeight="1169" math="0" shadow="0">
      <root>
        <mxCell id="0" />
        <mxCell id="1" parent="0" />
        <mxCell id="LXrgfZXzJ9aPnf6SshIl-7" style="edgeStyle=orthogonalEdgeStyle;rounded=0;orthogonalLoop=1;jettySize=auto;html=1;exitX=1;exitY=0.25;exitDx=0;exitDy=0;entryX=0.75;entryY=0;entryDx=0;entryDy=0;" edge="1" parent="1" source="LXrgfZXzJ9aPnf6SshIl-1" target="LXrgfZXzJ9aPnf6SshIl-2">
          <mxGeometry relative="1" as="geometry" />
        </mxCell>
        <mxCell id="LXrgfZXzJ9aPnf6SshIl-12" style="edgeStyle=orthogonalEdgeStyle;rounded=0;orthogonalLoop=1;jettySize=auto;html=1;exitX=1;exitY=1;exitDx=0;exitDy=0;entryX=0.25;entryY=0;entryDx=0;entryDy=0;" edge="1" parent="1" source="LXrgfZXzJ9aPnf6SshIl-1" target="LXrgfZXzJ9aPnf6SshIl-2">
          <mxGeometry relative="1" as="geometry">
            <Array as="points">
              <mxPoint x="470" y="140" />
              <mxPoint x="470" y="160" />
              <mxPoint x="630" y="160" />
            </Array>
          </mxGeometry>
        </mxCell>
        <mxCell id="LXrgfZXzJ9aPnf6SshIl-1" value="Клиент" style="rounded=0;whiteSpace=wrap;html=1;" vertex="1" parent="1">
          <mxGeometry x="320" y="80" width="120" height="60" as="geometry" />
        </mxCell>
        <mxCell id="LXrgfZXzJ9aPnf6SshIl-10" style="edgeStyle=orthogonalEdgeStyle;rounded=0;orthogonalLoop=1;jettySize=auto;html=1;exitX=0.5;exitY=0;exitDx=0;exitDy=0;entryX=1;entryY=0.5;entryDx=0;entryDy=0;" edge="1" parent="1" source="LXrgfZXzJ9aPnf6SshIl-2" target="LXrgfZXzJ9aPnf6SshIl-1">
          <mxGeometry relative="1" as="geometry">
            <Array as="points">
              <mxPoint x="660" y="130" />
              <mxPoint x="480" y="130" />
              <mxPoint x="480" y="110" />
            </Array>
          </mxGeometry>
        </mxCell>
        <mxCell id="LXrgfZXzJ9aPnf6SshIl-15" style="edgeStyle=orthogonalEdgeStyle;rounded=0;orthogonalLoop=1;jettySize=auto;html=1;exitX=0;exitY=0;exitDx=0;exitDy=0;entryX=0.75;entryY=1;entryDx=0;entryDy=0;" edge="1" parent="1" source="LXrgfZXzJ9aPnf6SshIl-2" target="LXrgfZXzJ9aPnf6SshIl-1">
          <mxGeometry relative="1" as="geometry">
            <Array as="points">
              <mxPoint x="630" y="240" />
              <mxPoint x="630" y="190" />
              <mxPoint x="410" y="190" />
            </Array>
          </mxGeometry>
        </mxCell>
        <mxCell id="LXrgfZXzJ9aPnf6SshIl-21" style="edgeStyle=orthogonalEdgeStyle;rounded=0;orthogonalLoop=1;jettySize=auto;html=1;exitX=1;exitY=0.25;exitDx=0;exitDy=0;entryX=0;entryY=0.25;entryDx=0;entryDy=0;" edge="1" parent="1" source="LXrgfZXzJ9aPnf6SshIl-2" target="LXrgfZXzJ9aPnf6SshIl-20">
          <mxGeometry relative="1" as="geometry" />
        </mxCell>
        <mxCell id="LXrgfZXzJ9aPnf6SshIl-25" style="edgeStyle=orthogonalEdgeStyle;rounded=0;orthogonalLoop=1;jettySize=auto;html=1;exitX=1;exitY=0.75;exitDx=0;exitDy=0;entryX=0;entryY=0.75;entryDx=0;entryDy=0;" edge="1" parent="1" source="LXrgfZXzJ9aPnf6SshIl-2" target="LXrgfZXzJ9aPnf6SshIl-20">
          <mxGeometry relative="1" as="geometry" />
        </mxCell>
        <mxCell id="LXrgfZXzJ9aPnf6SshIl-30" style="edgeStyle=orthogonalEdgeStyle;rounded=0;orthogonalLoop=1;jettySize=auto;html=1;exitX=0.75;exitY=1;exitDx=0;exitDy=0;entryX=0.75;entryY=0;entryDx=0;entryDy=0;" edge="1" parent="1" source="LXrgfZXzJ9aPnf6SshIl-2" target="LXrgfZXzJ9aPnf6SshIl-5">
          <mxGeometry relative="1" as="geometry">
            <Array as="points">
              <mxPoint x="690" y="390" />
              <mxPoint x="450" y="390" />
            </Array>
          </mxGeometry>
        </mxCell>
        <mxCell id="LXrgfZXzJ9aPnf6SshIl-33" style="edgeStyle=orthogonalEdgeStyle;rounded=0;orthogonalLoop=1;jettySize=auto;html=1;exitX=0.75;exitY=1;exitDx=0;exitDy=0;entryX=0.75;entryY=0;entryDx=0;entryDy=0;" edge="1" parent="1" source="LXrgfZXzJ9aPnf6SshIl-2" target="LXrgfZXzJ9aPnf6SshIl-3">
          <mxGeometry relative="1" as="geometry">
            <Array as="points">
              <mxPoint x="690" y="390" />
              <mxPoint x="210" y="390" />
            </Array>
          </mxGeometry>
        </mxCell>
        <mxCell id="LXrgfZXzJ9aPnf6SshIl-2" value="Сервер аутентификации" style="rounded=0;whiteSpace=wrap;html=1;" vertex="1" parent="1">
          <mxGeometry x="600" y="240" width="120" height="60" as="geometry" />
        </mxCell>
        <mxCell id="LXrgfZXzJ9aPnf6SshIl-3" value="Сервер 1" style="rounded=0;whiteSpace=wrap;html=1;" vertex="1" parent="1">
          <mxGeometry x="120" y="440" width="120" height="60" as="geometry" />
        </mxCell>
        <mxCell id="LXrgfZXzJ9aPnf6SshIl-5" value="Сервер 2" style="rounded=0;whiteSpace=wrap;html=1;" vertex="1" parent="1">
          <mxGeometry x="360" y="440" width="120" height="60" as="geometry" />
        </mxCell>
        <mxCell id="LXrgfZXzJ9aPnf6SshIl-9" value="1) Логин + пароль" style="text;html=1;align=center;verticalAlign=middle;whiteSpace=wrap;rounded=0;" vertex="1" parent="1">
          <mxGeometry x="480" y="70" width="170" height="30" as="geometry" />
        </mxCell>
        <mxCell id="LXrgfZXzJ9aPnf6SshIl-11" value="4) ОК / НЕОК" style="text;html=1;align=center;verticalAlign=middle;whiteSpace=wrap;rounded=0;" vertex="1" parent="1">
          <mxGeometry x="480" y="110" width="170" height="30" as="geometry" />
        </mxCell>
        <mxCell id="LXrgfZXzJ9aPnf6SshIl-13" value="5*) Доп" style="text;html=1;align=center;verticalAlign=middle;whiteSpace=wrap;rounded=0;" vertex="1" parent="1">
          <mxGeometry x="476" y="136" width="170" height="30" as="geometry" />
        </mxCell>
        <mxCell id="LXrgfZXzJ9aPnf6SshIl-16" value="6*) Доп" style="text;html=1;align=center;verticalAlign=middle;whiteSpace=wrap;rounded=0;" vertex="1" parent="1">
          <mxGeometry x="414" y="166" width="170" height="30" as="geometry" />
        </mxCell>
        <mxCell id="LXrgfZXzJ9aPnf6SshIl-23" style="edgeStyle=orthogonalEdgeStyle;rounded=0;orthogonalLoop=1;jettySize=auto;html=1;exitX=0;exitY=0.5;exitDx=0;exitDy=0;entryX=1;entryY=0.5;entryDx=0;entryDy=0;" edge="1" parent="1" source="LXrgfZXzJ9aPnf6SshIl-20" target="LXrgfZXzJ9aPnf6SshIl-2">
          <mxGeometry relative="1" as="geometry" />
        </mxCell>
        <mxCell id="LXrgfZXzJ9aPnf6SshIl-28" style="edgeStyle=orthogonalEdgeStyle;rounded=0;orthogonalLoop=1;jettySize=auto;html=1;exitX=0;exitY=1;exitDx=0;exitDy=0;entryX=1;entryY=1;entryDx=0;entryDy=0;" edge="1" parent="1" source="LXrgfZXzJ9aPnf6SshIl-20" target="LXrgfZXzJ9aPnf6SshIl-2">
          <mxGeometry relative="1" as="geometry">
            <Array as="points">
              <mxPoint x="810" y="300" />
              <mxPoint x="810" y="300" />
            </Array>
          </mxGeometry>
        </mxCell>
        <mxCell id="LXrgfZXzJ9aPnf6SshIl-20" value="БД" style="rounded=0;whiteSpace=wrap;html=1;" vertex="1" parent="1">
          <mxGeometry x="910" y="240" width="120" height="60" as="geometry" />
        </mxCell>
        <mxCell id="LXrgfZXzJ9aPnf6SshIl-22" value="2) Проверка пароль + логин" style="text;html=1;align=center;verticalAlign=middle;whiteSpace=wrap;rounded=0;" vertex="1" parent="1">
          <mxGeometry x="730" y="230" width="170" height="30" as="geometry" />
        </mxCell>
        <mxCell id="LXrgfZXzJ9aPnf6SshIl-24" value="3) ОК / НЕОК" style="text;html=1;align=center;verticalAlign=middle;whiteSpace=wrap;rounded=0;" vertex="1" parent="1">
          <mxGeometry x="731" y="249" width="170" height="30" as="geometry" />
        </mxCell>
        <mxCell id="LXrgfZXzJ9aPnf6SshIl-26" value="7) Проверка полномочий" style="text;html=1;align=center;verticalAlign=middle;whiteSpace=wrap;rounded=0;" vertex="1" parent="1">
          <mxGeometry x="731" y="276" width="170" height="6" as="geometry" />
        </mxCell>
        <mxCell id="LXrgfZXzJ9aPnf6SshIl-29" value="8) полномочия" style="text;html=1;align=center;verticalAlign=middle;whiteSpace=wrap;rounded=0;" vertex="1" parent="1">
          <mxGeometry x="740" y="290" width="170" height="6" as="geometry" />
        </mxCell>
        <mxCell id="LXrgfZXzJ9aPnf6SshIl-31" value="9) Разбан клиентскорго ip" style="text;html=1;align=center;verticalAlign=middle;whiteSpace=wrap;rounded=0;" vertex="1" parent="1">
          <mxGeometry x="420" y="370" width="190" height="30" as="geometry" />
        </mxCell>
      </root>
    </mxGraphModel>
  </diagram>
</mxfile>
